<svg xmlns="http://www.w3.org/2000/svg" viewBox="0 0 900 1125" role="img" aria-label="Dragon Rose">
<defs>
  <linearGradient id="bg" x1="0" y1="0" x2="1" y2="1"><stop stop-color="#0b0b0e"/><stop offset="1" stop-color="#252129"/></linearGradient>
  <filter id="shadow" x="-30%" y="-30%" width="160%" height="160%"><feDropShadow dx="0" dy="20" stdDeviation="20" flood-color="#000" flood-opacity=".65"/></filter>
  <pattern id="grain" width="10" height="10" patternUnits="userSpaceOnUse"><circle cx="1" cy="1" r=".8" fill="#fff" opacity=".06"/></pattern>
</defs>
<rect width="900" height="1125" fill="url(#bg)"/>
<rect width="900" height="1125" fill="url(#grain)"/>
<text x="60" y="88" fill="#eae5ef" font-family="Arial Black, Impact, sans-serif" font-size="34" letter-spacing="8">NEBLK</text>
<text x="60" y="130" fill="#8e8494" font-family="Arial, sans-serif" font-size="18" letter-spacing="5">DRAGON ROSE</text>
<g filter="url(#shadow)">
 <path d="M265 250 381 184h138l116 66 130 159-104 84-50-59v489H289V434l-50 59-104-84z" fill="#111216" stroke="#33313a" stroke-width="7"/>
 <path d="M381 184c14 65 124 65 138 0" fill="#08090c" stroke="#33313a" stroke-width="7"/>
 <path d="M289 923h322" stroke="#383640" stroke-width="8"/>
</g>
<g transform="translate(300 360)"><g fill="none" stroke="#c87786" stroke-width="12"><path d="M85 30c120 0 290 10 290 100 0 120-300 65-280 210 20 135 300 90 270 225"/><path d="M88 70c35 40 77 53 132 53M258 37c-30 55-24 117 27 160M116 250c80 10 117 31 159 77"/></g><g fill="#c87786"><circle cx="74" cy="28" r="26"/><path d="M330 300 395 246 396 330z"/></g><text x="125" y="185" fill="#c87786" font-family="Arial Black, Impact" font-size="57" transform="rotate(-17 125 185)">DRAGON</text></g>
<text x="60" y="1068" fill="#c87786" font-family="Arial Black, Impact, sans-serif" font-size="30" letter-spacing="2">DROP 01 / 2026</text>
<rect x="60" y="1091" width="780" height="2" fill="#9e4e62" opacity=".75"/>
</svg>